<svg width="10" height="10" viewBox="0 0 10 10" fill="none" xmlns="http://www.w3.org/2000/svg">
<path fill-rule="evenodd" clip-rule="evenodd" d="M9.97888 2.13667C9.95641 2.10197 9.92844 2.08398 9.8972 2.08398L6.07254 2.08462C6.01646 2.08462 5.97166 2.14289 5.97166 2.21496V3.29494C5.97166 3.36512 6.01646 3.42272 6.07254 3.42272H7.7351L4.15005 7.03328C4.12763 7.05713 4.11326 7.08971 4.11326 7.1241C4.11326 7.15867 4.12763 7.19077 4.15005 7.21515L4.91044 7.97994C4.95452 8.02492 5.04488 8.02492 5.09031 7.97994L8.66918 4.37501V7.90768C8.66918 7.9643 8.72709 8.00928 8.79883 8.00928H9.87295C9.94277 8.00928 10 7.9643 10 7.90768V2.19099C10 2.17251 9.99387 2.15326 9.97888 2.13667Z" fill="#5D5D5D"/>
<path fill-rule="evenodd" clip-rule="evenodd" d="M5.11839 2.085H0.102131C0.0734875 2.085 0.0447996 2.1024 0.0230488 2.13553C0.00805588 2.15459 0 2.17289 0 2.19232V7.90875C0 7.96495 0.0579128 8.01102 0.127596 8.01102H1.20185C1.27341 8.01102 1.32949 7.96495 1.32949 7.90875V4.37585L3.45476 6.51529C3.49428 6.55518 3.56696 6.54585 3.61745 6.49501L4.37586 5.73122C4.42514 5.68168 4.43387 5.60902 4.39417 5.569L2.26563 3.42442H5.11839C5.17443 3.42442 5.22043 3.36632 5.22043 3.29582V2.214C5.22043 2.14305 5.17443 2.085 5.11839 2.085Z" fill="#5D5D5D"/>
</svg>
