<svg width="10" height="10" viewBox="0 0 10 10" fill="none" xmlns="http://www.w3.org/2000/svg">
<path d="M4.0625 0.625C3.54483 0.625 3.125 1.04448 3.125 1.56235V1.875H0.9375C0.419733 1.875 0 2.29473 0 2.8125V7.8125C0 8.33027 0.419733 8.75 0.9375 8.75H9.0625C9.58027 8.75 10 8.33027 10 7.8125V2.8125C10 2.29473 9.58027 1.875 9.0625 1.875H6.875V1.56235C6.875 1.04448 6.45517 0.625 5.9375 0.625H4.0625ZM4.0625 1.25H5.9375C6.11019 1.25 6.25 1.39039 6.25 1.56288V1.875H3.75V1.56235C3.75 1.38986 3.88981 1.25 4.0625 1.25ZM5.24156 5.5715L9.375 4.46925V7.8125C9.375 7.98509 9.23509 8.125 9.0625 8.125H0.9375C0.764911 8.125 0.625 7.98509 0.625 7.8125V4.46925L4.75844 5.5715C4.91672 5.61371 5.08328 5.61371 5.24156 5.5715ZM0.9375 2.5H9.0625C9.23509 2.5 9.375 2.63991 9.375 2.8125V3.82241L5.08052 4.96761C5.02776 4.98168 4.97224 4.98168 4.91948 4.96761L0.625 3.82241V2.8125C0.625 2.63991 0.764911 2.5 0.9375 2.5Z" fill="#5D5D5D"/>
</svg>
