<svg width="12" height="12" viewBox="0 0 12 12" fill="none" xmlns="http://www.w3.org/2000/svg">
<g clip-path="url(#clip0_5075_12840)">
<path d="M8.25 0.75C8.44891 0.75 8.63968 0.829018 8.78033 0.96967C8.92098 1.11032 9 1.30109 9 1.5V10.5C9 10.6989 8.92098 10.8897 8.78033 11.0303C8.63968 11.171 8.44891 11.25 8.25 11.25H3.75C3.55109 11.25 3.36032 11.171 3.21967 11.0303C3.07902 10.8897 3 10.6989 3 10.5V1.5C3 1.30109 3.07902 1.11032 3.21967 0.96967C3.36032 0.829018 3.55109 0.75 3.75 0.75H8.25ZM3.75 0C3.35218 0 2.97064 0.158035 2.68934 0.43934C2.40804 0.720644 2.25 1.10218 2.25 1.5V10.5C2.25 10.8978 2.40804 11.2794 2.68934 11.5607C2.97064 11.842 3.35218 12 3.75 12H8.25C8.64782 12 9.02936 11.842 9.31066 11.5607C9.59196 11.2794 9.75 10.8978 9.75 10.5V1.5C9.75 1.10218 9.59196 0.720644 9.31066 0.43934C9.02936 0.158035 8.64782 0 8.25 0L3.75 0Z" fill="#5D5D5D"/>
<path d="M6 10.5C6.19891 10.5 6.38968 10.421 6.53033 10.2803C6.67098 10.1397 6.75 9.94891 6.75 9.75C6.75 9.55109 6.67098 9.36032 6.53033 9.21967C6.38968 9.07902 6.19891 9 6 9C5.80109 9 5.61032 9.07902 5.46967 9.21967C5.32902 9.36032 5.25 9.55109 5.25 9.75C5.25 9.94891 5.32902 10.1397 5.46967 10.2803C5.61032 10.421 5.80109 10.5 6 10.5Z" fill="#5D5D5D"/>
</g>
<defs>
<clipPath id="clip0_5075_12840">
<rect width="12" height="12" fill="white"/>
</clipPath>
</defs>
</svg>
