<svg width="12" height="12" viewBox="0 0 12 12" fill="none" xmlns="http://www.w3.org/2000/svg">
<g clip-path="url(#clip0_5077_12906)">
<path d="M6.38625 0.76425C6.25772 0.754761 6.12888 0.750007 6 0.75V0C6.1474 7.18707e-05 6.29475 0.00557561 6.44175 0.0165L6.38625 0.76425ZM7.88925 1.10175C7.64884 1.00897 7.40192 0.934018 7.1505 0.8775L7.31475 0.1455C7.60275 0.21 7.88425 0.2955 8.15925 0.402L7.88925 1.10175ZM8.91675 1.63425C8.80952 1.56273 8.6997 1.49519 8.5875 1.43175L8.95725 0.77925C9.21371 0.924494 9.45913 1.08844 9.6915 1.26975L9.23025 1.8615C9.12857 1.78218 9.024 1.70662 8.91675 1.635V1.63425ZM10.2922 2.97675C10.1439 2.766 9.98018 2.56646 9.8025 2.37975L10.3455 1.86225C10.5485 2.07675 10.7352 2.30425 10.9057 2.54475L10.2922 2.97675ZM10.8502 3.99075C10.8011 3.87182 10.7475 3.75474 10.6897 3.63975L11.3595 3.30225C11.4919 3.56559 11.6047 3.83833 11.697 4.11825L10.9845 4.353C10.9442 4.23064 10.8994 4.10981 10.8502 3.99075ZM11.2477 5.871C11.2417 5.61326 11.2166 5.35631 11.1727 5.10225L11.9115 4.97475C11.9615 5.26475 11.9905 5.55725 11.9985 5.85225L11.2477 5.871ZM11.1495 7.0245C11.1745 6.8975 11.1947 6.77 11.2102 6.642L11.955 6.73425C11.9189 7.02685 11.8612 7.31638 11.7825 7.6005L11.0595 7.40025C11.094 7.27675 11.124 7.1515 11.1495 7.0245ZM10.4355 8.80875C10.5735 8.59075 10.695 8.36375 10.8 8.12775L11.4855 8.4315C11.3655 8.7015 11.2267 8.961 11.0692 9.21L10.4355 8.80875ZM9.7125 9.7125C9.804 9.621 9.8915 9.5265 9.975 9.429L10.5435 9.91875C10.4473 10.0304 10.3469 10.1385 10.2427 10.2428L9.7125 9.7125Z" fill="#3B3B3B"/>
<path d="M6.00039 0.75C5.13705 0.750062 4.28705 0.963035 3.52567 1.37005C2.7643 1.77707 2.11505 2.36558 1.63543 3.08344C1.15582 3.8013 0.860635 4.62636 0.776035 5.48555C0.691436 6.34473 0.820028 7.21152 1.15042 8.00914C1.48082 8.80676 2.00282 9.51059 2.67018 10.0583C3.33755 10.606 4.12969 10.9807 4.97644 11.1491C5.82319 11.3175 6.69841 11.2746 7.52458 11.024C8.35076 10.7734 9.10238 10.3229 9.71289 9.7125L10.2431 10.2428C9.54544 10.9408 8.68633 11.456 7.74192 11.7427C6.79751 12.0294 5.79697 12.0788 4.82894 11.8864C3.86091 11.6939 2.95528 11.2657 2.1923 10.6397C1.42932 10.0136 0.832541 9.209 0.45484 8.29717C0.0771399 7.38533 -0.0698205 6.39441 0.0269803 5.4122C0.123781 4.42999 0.461354 3.48683 1.00979 2.66626C1.55823 1.8457 2.30059 1.17308 3.17111 0.708002C4.04163 0.242921 5.01342 -0.000261549 6.00039 2.11094e-07V0.75Z" fill="#3B3B3B"/>
<path d="M5.625 2.25C5.72446 2.25 5.81984 2.28951 5.89016 2.35984C5.96049 2.43016 6 2.52554 6 2.625V6.5325L8.436 7.9245C8.51984 7.97508 8.58058 8.05645 8.60522 8.15122C8.62987 8.24598 8.61647 8.34663 8.56789 8.43165C8.5193 8.51667 8.4394 8.57931 8.34524 8.60619C8.25108 8.63307 8.15014 8.62206 8.064 8.5755L5.439 7.0755C5.3816 7.04272 5.33389 6.99534 5.3007 6.93818C5.26751 6.88102 5.25002 6.8161 5.25 6.75V2.625C5.25 2.52554 5.28951 2.43016 5.35984 2.35984C5.43016 2.28951 5.52554 2.25 5.625 2.25Z" fill="#3B3B3B"/>
</g>
<defs>
<clipPath id="clip0_5077_12906">
<rect width="12" height="12" fill="white"/>
</clipPath>
</defs>
</svg>
