<svg width="12" height="12" viewBox="0 0 12 12" fill="none" xmlns="http://www.w3.org/2000/svg">
<g clip-path="url(#clip0_5093_1870)">
<path d="M0 6C0 4.4087 0.632141 2.88258 1.75736 1.75736C2.88258 0.632141 4.4087 0 6 0C7.5913 0 9.11742 0.632141 10.2426 1.75736C11.3679 2.88258 12 4.4087 12 6C12 7.5913 11.3679 9.11742 10.2426 10.2426C9.11742 11.3679 7.5913 12 6 12C4.4087 12 2.88258 11.3679 1.75736 10.2426C0.632141 9.11742 0 7.5913 0 6ZM5.625 0.80775C5.1225 0.96075 4.62375 1.42275 4.20975 2.199C4.10225 2.4005 4.0035 2.6185 3.9135 2.853C4.44225 2.97075 5.0175 3.04575 5.625 3.06825V0.80775ZM3.18675 2.65425C3.29375 2.36575 3.414 2.09625 3.5475 1.84575C3.67803 1.60104 3.82775 1.36706 3.99525 1.146C3.35666 1.41043 2.77656 1.79834 2.28825 2.2875C2.56025 2.426 2.85975 2.54775 3.18675 2.65425ZM2.63175 5.625C2.65875 4.8225 2.77275 4.05975 2.95875 3.369C2.55258 3.23968 2.15958 3.07219 1.785 2.86875C1.18751 3.67068 0.83295 4.62737 0.7635 5.625H2.63175ZM3.68175 3.56925C3.50466 4.24102 3.40402 4.93064 3.38175 5.625H5.625V3.81825C4.9425 3.79575 4.28775 3.7095 3.68175 3.56925ZM6.375 3.8175V5.625H8.6175C8.59547 4.93067 8.49508 4.24105 8.31825 3.56925C7.71225 3.7095 7.0575 3.79425 6.375 3.8175ZM3.3825 6.375C3.40875 7.11525 3.5145 7.8105 3.68175 8.43075C4.32003 8.28584 4.97079 8.20271 5.625 8.1825V6.375H3.3825ZM6.375 6.375V8.18175C7.0575 8.20425 7.71225 8.2905 8.31825 8.43075C8.4855 7.8105 8.59125 7.11525 8.61825 6.375H6.375ZM3.9135 9.147C4.0035 9.3815 4.10225 9.5995 4.20975 9.801C4.62375 10.5772 5.12325 11.0385 5.625 11.1923V8.9325C5.0175 8.955 4.44225 9.02925 3.9135 9.147ZM3.996 10.854C3.82824 10.633 3.67827 10.399 3.5475 10.1542C3.40966 9.89269 3.28915 9.62236 3.18675 9.345C2.87824 9.44421 2.57785 9.56707 2.28825 9.7125C2.77656 10.2017 3.35741 10.5896 3.996 10.854ZM2.95875 8.631C2.76429 7.89387 2.65433 7.137 2.631 6.375H0.7635C0.83295 7.37263 1.18751 8.32932 1.785 9.13125C2.1375 8.93775 2.53125 8.76975 2.95875 8.631ZM8.00475 10.854C8.64301 10.5897 9.22284 10.2021 9.711 9.71325C9.42164 9.56786 9.1215 9.44499 8.81325 9.34575C8.71082 9.62285 8.59031 9.89293 8.4525 10.1542C8.32197 10.399 8.17225 10.6329 8.00475 10.854ZM6.375 8.93175V11.1923C6.8775 11.0393 7.37625 10.5772 7.79025 9.801C7.89825 9.5995 7.997 9.3815 8.0865 9.147C7.52373 9.02347 6.95085 8.95093 6.375 8.93175ZM9.04125 8.631C9.46875 8.76975 9.8625 8.93775 10.215 9.13125C10.8125 8.32932 11.1671 7.37263 11.2365 6.375H9.369C9.34567 7.137 9.23571 7.89387 9.04125 8.631ZM11.2365 5.625C11.1671 4.62737 10.8125 3.67068 10.215 2.86875C9.8625 3.06225 9.46875 3.23025 9.04125 3.369C9.22725 4.059 9.34125 4.8225 9.369 5.625H11.2365ZM8.4525 1.84575C8.5855 2.09675 8.706 2.36625 8.814 2.65425C9.12199 2.55497 9.42188 2.43211 9.711 2.28675C9.22277 1.79821 8.64295 1.41082 8.00475 1.14675C8.16825 1.359 8.31825 1.5945 8.4525 1.84575ZM8.0865 2.853C8.00089 2.62928 7.90197 2.41089 7.79025 2.199C7.37625 1.42275 6.8775 0.9615 6.375 0.80775V3.0675C6.9825 3.045 7.55775 2.97075 8.0865 2.853Z" fill="#5D5D5D"/>
</g>
<defs>
<clipPath id="clip0_5093_1870">
<rect width="12" height="12" fill="white"/>
</clipPath>
</defs>
</svg>
