<svg width="64" height="64" viewBox="0 0 64 64" fill="none" xmlns="http://www.w3.org/2000/svg">
<g clip-path="url(#clip0_2592_299357)">
<circle cx="32" cy="32" r="32" fill="url(#paint0_linear_2592_299357)"/>
<path d="M24.6927 19.244L28.9997 21.6667L27.36 17.8407C26.7973 16.5279 24.9794 16.4157 24.2597 17.6495C23.9335 18.2087 24.1285 18.9267 24.6927 19.244Z" fill="#E2F6E3"/>
<path d="M35.0752 19.2438L30.7682 21.6665L32.4079 17.8405C32.9706 16.5276 34.7885 16.4155 35.5082 17.6493C35.8344 18.2085 35.6394 18.9264 35.0752 19.2438Z" fill="#E2F6E3"/>
<path d="M29.0013 36.3334L28.5541 35.4389C28.2153 34.7614 27.5228 34.3334 26.7652 34.3334H21.3903C20.4004 34.3334 19.5593 35.0577 19.4125 36.0367L18.0125 45.37C17.8311 46.5792 18.7676 47.6667 19.9903 47.6667H42.6567C43.6272 47.6667 44.4576 46.97 44.6262 46.0143L45.9204 38.6809C46.1365 37.4563 45.1944 36.3334 43.9508 36.3334H29.0013Z" fill="#E2F6E3"/>
<path fill-rule="evenodd" clip-rule="evenodd" d="M29.2128 20.6175C29.44 20.4379 29.727 20.3307 30.0391 20.3307C30.2282 20.3307 30.4082 20.3701 30.5713 20.4412C30.6821 20.1492 30.8153 19.808 30.9616 19.4535C31.1659 18.9584 31.3984 18.4306 31.6328 17.9724C31.8589 17.5307 32.1139 17.0981 32.3733 16.8386C33.2843 15.9278 34.7666 15.652 35.6661 16.5514C36.5656 17.4508 36.2897 18.9331 35.3788 19.8439C35.1194 20.1034 34.6867 20.3584 34.2449 20.5844C33.7867 20.8188 33.2589 21.0512 32.7637 21.2555C32.2672 21.4603 31.7969 21.6396 31.4511 21.7676L31.3656 21.799C31.298 22.472 30.7299 22.9974 30.0391 22.9974C29.3962 22.9974 28.8596 22.5425 28.7337 21.937L28.6812 21.9183C28.5819 21.8829 28.4396 21.8316 28.2665 21.7676C27.9207 21.6396 27.4503 21.4603 26.9539 21.2555C26.4587 21.0512 25.9309 20.8188 25.4726 20.5844C25.0308 20.3584 24.5982 20.1034 24.3388 19.8439C23.4278 18.9331 23.1519 17.4508 24.0515 16.5514C24.9509 15.652 26.4333 15.9278 27.3442 16.8386C27.6037 17.0981 27.8587 17.5307 28.0847 17.9724C28.3192 18.4306 28.5516 18.9584 28.756 19.4535C28.9328 19.8821 29.0906 20.2912 29.2128 20.6175ZM26.6372 17.5458C25.9614 16.8701 25.1284 16.8887 24.7585 17.2585C24.3887 17.6283 24.37 18.4611 25.0458 19.1368C25.1831 19.274 25.4875 19.4687 25.9281 19.6941C26.3522 19.9111 26.8522 20.1318 27.3352 20.3311C27.6253 20.4508 27.9069 20.5617 28.1589 20.6584C28.0622 20.4065 27.9512 20.125 27.8316 19.8349C27.6323 19.352 27.4115 18.852 27.1945 18.4279C26.9691 17.9874 26.7744 17.683 26.6372 17.5458ZM31.5587 20.6584C31.8107 20.5617 32.0922 20.4508 32.3823 20.3311C32.8653 20.1318 33.3654 19.9111 33.7895 19.6941C34.2301 19.4687 34.5345 19.274 34.6717 19.1368C35.3475 18.4611 35.3289 17.6283 34.959 17.2585C34.5891 16.8887 33.7562 16.8701 33.0804 17.5458C32.9432 17.683 32.7485 17.9874 32.5231 18.4279C32.3061 18.852 32.0853 19.352 31.886 19.8349C31.7663 20.125 31.6554 20.4065 31.5587 20.6584Z" fill="#609352"/>
<path fill-rule="evenodd" clip-rule="evenodd" d="M18.6654 28.6667C17.929 28.6667 17.332 29.2636 17.332 30V46.6667C17.332 47.403 17.929 48 18.6654 48H43.5359C44.1876 48 44.7439 47.5288 44.8511 46.8859L46.4066 37.5525C46.5421 36.7398 45.9153 36 45.0914 36H44.6654V30C44.6654 29.2636 44.0684 28.6667 43.332 28.6667H32.0821C32.1745 28.5096 32.1775 28.3075 32.0726 28.1435C31.924 27.9108 31.6148 27.8427 31.3821 27.9914C31.0897 28.1782 30.8177 28.4015 30.5709 28.6667H18.6654ZM29.8366 29.6667H18.6654C18.4813 29.6667 18.332 29.8159 18.332 30V41L19.1685 35.1448C19.2623 34.4879 19.8249 34 20.4884 34H27.5662C28.0404 34 28.479 34.2519 28.7179 34.6615L29.4987 36H31.0107C30.8534 35.7656 30.6869 35.5351 30.5166 35.2994C30.4438 35.1986 30.3703 35.0969 30.2966 34.9936C30.1362 34.7688 30.1884 34.4566 30.4132 34.2962C30.638 34.1358 30.9503 34.188 31.1107 34.4128C31.1765 34.5052 31.2447 34.5994 31.3141 34.6955C31.6056 35.0985 31.9207 35.5342 32.191 36H43.6654V30C43.6654 29.8159 43.5161 29.6667 43.332 29.6667H31.0413C30.6083 30.2565 30.3506 30.7638 30.2134 31.2064C30.1316 31.4702 29.8514 31.6177 29.5877 31.5359C29.3239 31.4541 29.1764 31.1739 29.2583 30.9102C29.3814 30.5131 29.5716 30.1005 29.8366 29.6667ZM45.4202 37.3881C45.4541 37.185 45.2974 37 45.0914 37H28.9243L27.8541 35.1654C27.7944 35.063 27.6848 35 27.5662 35H20.4884C20.3225 35 20.1819 35.122 20.1584 35.2862L18.5394 46.6195C18.5107 46.8203 18.6665 47 18.8694 47H43.5359C43.6988 47 43.8379 46.8822 43.8647 46.7215L45.4202 37.3881Z" fill="#609352"/>
<path d="M42.7059 20.2985C41.9755 19.9724 41.098 19.8756 40.1895 19.9103C39.9136 19.9208 39.6984 20.1531 39.7089 20.429C39.7195 20.705 39.9517 20.9201 40.2277 20.9096C41.0569 20.8779 41.7626 20.9725 42.2982 21.2116C42.5503 21.3242 42.846 21.2111 42.9586 20.9589C43.0712 20.7068 42.958 20.4111 42.7059 20.2985Z" fill="#609352"/>
<path d="M38.0015 21.2222C38.2711 21.1623 38.4411 20.8952 38.3812 20.6256C38.3213 20.3561 38.0542 20.1861 37.7847 20.2459C37.0054 20.419 36.2236 20.6445 35.4828 20.8905C35.2207 20.9775 35.0788 21.2605 35.1658 21.5226C35.2529 21.7847 35.5358 21.9266 35.7979 21.8395C36.5137 21.6019 37.2621 21.3864 38.0015 21.2222Z" fill="#609352"/>
<path d="M33.6453 22.6505C33.8998 22.5432 34.0191 22.25 33.9118 21.9956C33.8045 21.7411 33.5113 21.6218 33.2568 21.7291C32.8538 21.899 32.487 22.064 32.1688 22.2152C31.9194 22.3338 31.8133 22.6321 31.9319 22.8815C32.0504 23.1309 32.3487 23.2369 32.5981 23.1184C32.9022 22.9738 33.2554 22.8149 33.6453 22.6505Z" fill="#609352"/>
<path d="M44.4078 22.3873C44.3471 22.1179 44.0796 21.9487 43.8102 22.0093C43.5408 22.07 43.3715 22.3375 43.4322 22.6069C43.4966 22.8932 43.5237 23.2333 43.5 23.6362C43.4719 24.1134 43.4071 24.5235 43.3129 24.8759C43.2416 25.1427 43.4 25.4168 43.6668 25.4881C43.9336 25.5594 44.2076 25.4009 44.2789 25.1341C44.3934 24.706 44.4669 24.2278 44.4983 23.6949C44.5264 23.2157 44.4962 22.7801 44.4078 22.3873Z" fill="#609352"/>
<path d="M42.4991 27.5719C42.7392 27.4355 42.8232 27.1303 42.6868 26.8902C42.5503 26.6501 42.2451 26.5661 42.005 26.7025C41.384 27.0554 40.5783 27.1998 39.6202 27.2329C39.3442 27.2424 39.1282 27.4739 39.1378 27.7499C39.1473 28.0258 39.3788 28.2418 39.6547 28.2323C40.6696 28.1972 41.6685 28.0439 42.4991 27.5719Z" fill="#609352"/>
<path d="M34.2641 28.1501C35.0923 28.0802 35.9841 28.1126 36.9047 28.1584C37.1805 28.172 37.4152 27.9596 37.4289 27.6838C37.4426 27.408 37.2301 27.1733 36.9543 27.1596C36.0357 27.114 35.0827 27.0774 34.1799 27.1537C33.9048 27.1769 33.7005 27.4188 33.7238 27.694C33.747 27.9692 33.9889 28.1734 34.2641 28.1501Z" fill="#609352"/>
</g>
<defs>
<linearGradient id="paint0_linear_2592_299357" x1="32" y1="0" x2="32" y2="64" gradientUnits="userSpaceOnUse">
<stop stop-color="#E8F5E4"/>
<stop offset="1" stop-color="#F7FFF5"/>
</linearGradient>
<clipPath id="clip0_2592_299357">
<rect width="64" height="64" fill="white"/>
</clipPath>
</defs>
</svg>
