<svg width="64" height="64" viewBox="0 0 64 64" fill="none" xmlns="http://www.w3.org/2000/svg">
  <!-- Kruh s gradientem jako pozadí -->
  <circle cx="32" cy="32" r="32" fill="url(#paint0_linear_1035_170113)"/>
  
  <!-- Ikona rostliny s košíkem - vycentrovaná do kruhu -->
  <g transform="translate(17, 16)">
    <path fill-rule="evenodd" clip-rule="evenodd" d="M12.2167 4.61754C12.4439 4.43794 12.7309 4.33073 13.043 4.33073C13.2322 4.33073 13.4121 4.37013 13.5752 4.44118C13.686 4.14915 13.8192 3.80798 13.9655 3.4535C14.1698 2.95837 14.4023 2.43063 14.6367 1.97241C14.8628 1.53065 15.1178 1.09806 15.3772 0.838642C16.2882 -0.0721882 17.7705 -0.348014 18.67 0.551371C19.5695 1.45081 19.2936 2.93311 18.3827 3.84395C18.1233 4.10336 17.6906 4.35836 17.2488 4.58438C16.7906 4.81881 16.2628 5.05122 15.7676 5.25551C15.2711 5.46033 14.8008 5.63961 14.455 5.76755L14.3696 5.79905C14.3019 6.47203 13.7338 6.9974 13.043 6.9974C12.4001 6.9974 11.8636 6.54247 11.7376 5.93701L11.6851 5.91834C11.5858 5.88293 11.4435 5.83159 11.2704 5.76755C10.9246 5.63961 10.4542 5.46033 9.95777 5.25551C9.46259 5.05122 8.93481 4.81881 8.47654 4.58438C8.03474 4.35836 7.6021 4.10336 7.34266 3.84395C6.43173 2.93311 6.15583 1.45081 7.05536 0.551371C7.95484 -0.348014 9.43721 -0.0721882 10.3481 0.838642C10.6076 1.09806 10.8626 1.53065 11.0887 1.97241C11.3231 2.43063 11.5555 2.95837 11.7599 3.4535C11.9367 3.88208 12.0945 4.29121 12.2167 4.61754ZM9.64107 1.54579C8.96527 0.870066 8.13232 0.888662 7.76243 1.25852C7.39259 1.62832 7.37394 2.46109 8.04973 3.1368C8.18697 3.27403 8.49136 3.4687 8.93197 3.6941C9.35611 3.91108 9.85612 4.13181 10.3391 4.33109C10.6292 4.45076 10.9108 4.56172 11.1628 4.65838C11.0661 4.40646 10.9551 4.12496 10.8355 3.83494C10.6362 3.35197 10.4154 2.85202 10.1984 2.42792C9.973 1.98736 9.7783 1.68301 9.64107 1.54579ZM14.5626 4.65839C14.8146 4.56172 15.0961 4.45076 15.3862 4.33109C15.8693 4.13181 16.3693 3.91108 16.7934 3.6941C17.234 3.4687 17.5384 3.27403 17.6756 3.1368C18.3514 2.46109 18.3328 1.62832 17.9629 1.25852C17.5931 0.888662 16.7601 0.870066 16.0843 1.54579C15.9471 1.68301 15.7524 1.98736 15.527 2.42792C15.31 2.85202 15.0892 3.35197 14.8899 3.83494C14.7702 4.12496 14.6593 4.40646 14.5626 4.65839Z" fill="#609352"/>
    <path fill-rule="evenodd" clip-rule="evenodd" d="M1.66927 12.6667C0.932891 12.6667 0.335938 13.2636 0.335938 14V30.6667C0.335938 31.403 0.932892 32 1.66927 32H26.5398C27.1916 32 27.7478 31.5288 27.855 30.8859L29.4105 21.5525C29.546 20.7398 28.9192 20 28.0953 20H27.6693V14C27.6693 13.2636 27.0723 12.6667 26.3359 12.6667H15.086C15.1785 12.5096 15.1814 12.3075 15.0766 12.1435C14.9279 11.9108 14.6187 11.8427 14.386 11.9914C14.0936 12.1782 13.8217 12.4015 13.5748 12.6667H1.66927ZM12.8405 13.6667H1.66927C1.48518 13.6667 1.33594 13.8159 1.33594 14V25L2.1724 19.1448C2.26624 18.4879 2.8288 18 3.49233 18H10.5701C11.0443 18 11.4829 18.2519 11.7218 18.6615L12.5026 20H14.0146C13.8573 19.7656 13.6908 19.5351 13.5205 19.2994C13.4477 19.1986 13.3742 19.0969 13.3005 18.9936C13.1401 18.7688 13.1924 18.4566 13.4172 18.2962C13.642 18.1358 13.9542 18.188 14.1146 18.4128C14.1804 18.5052 14.2486 18.5994 14.318 18.6955C14.6095 19.0985 14.9246 19.5342 15.1949 20H26.6693V14C26.6693 13.8159 26.52 13.6667 26.3359 13.6667H14.0452C13.6123 14.2565 13.3546 14.7638 13.2173 15.2064C13.1355 15.4702 12.8553 15.6177 12.5916 15.5359C12.3278 15.4541 12.1804 15.1739 12.2622 14.9102C12.3853 14.5131 12.5755 14.1005 12.8405 13.6667ZM28.4241 21.3881C28.458 21.185 28.3013 21 28.0953 21H11.9282L10.858 19.1654C10.7983 19.063 10.6887 19 10.5701 19H3.49233C3.32645 19 3.18581 19.122 3.16235 19.2862L1.5433 30.6195C1.51461 30.8203 1.67043 31 1.87328 31H26.5398C26.7027 31 26.8418 30.8822 26.8686 30.7215L28.4241 21.3881Z" fill="#609352"/>
    <path d="M25.7098 4.29853C24.9794 3.97236 24.1019 3.87561 23.1934 3.9103C22.9175 3.92084 22.7023 4.15308 22.7129 4.42902C22.7234 4.70496 22.9556 4.92011 23.2316 4.90958C24.0608 4.87791 24.7665 4.97246 25.3021 5.21163C25.5542 5.32422 25.8499 5.21109 25.9625 4.95894C26.0751 4.7068 25.962 4.41112 25.7098 4.29853Z" fill="#609352"/>
    <path d="M21.0054 5.22216C21.275 5.16229 21.445 4.89522 21.3851 4.62565C21.3252 4.35607 21.0581 4.18608 20.7886 4.24595C20.0093 4.41902 19.2275 4.64451 18.4867 4.8905C18.2246 4.97752 18.0827 5.26052 18.1697 5.52259C18.2568 5.78466 18.5398 5.92657 18.8018 5.83955C19.5176 5.60187 20.266 5.38637 21.0054 5.22216Z" fill="#609352"/>
    <path d="M16.6492 6.65052C16.9037 6.54324 17.023 6.25 16.9157 5.99555C16.8084 5.7411 16.5152 5.62179 16.2607 5.72907C15.8577 5.89898 15.4909 6.06399 15.1727 6.21523C14.9233 6.33377 14.8172 6.63206 14.9358 6.88146C15.0543 7.13086 15.3526 7.23694 15.602 7.11839C15.9061 6.97384 16.2593 6.81491 16.6492 6.65052Z" fill="#609352"/>
    <path d="M27.4117 6.38728C27.351 6.11788 27.0835 5.94866 26.8141 6.00931C26.5447 6.06996 26.3754 6.33751 26.4361 6.60691C26.5005 6.89316 26.5276 7.23327 26.5039 7.63615C26.4758 8.1134 26.411 8.52348 26.3168 8.87591C26.2455 9.14269 26.4039 9.41676 26.6707 9.48807C26.9375 9.55938 27.2115 9.40092 27.2829 9.13415C27.3973 8.70604 27.4708 8.22782 27.5022 7.69486C27.5304 7.21568 27.5001 6.7801 27.4117 6.38728Z" fill="#609352"/>
    <path d="M25.503 11.5719C25.7431 11.4355 25.8271 11.1303 25.6907 10.8902C25.5542 10.6501 25.249 10.5661 25.0089 10.7025C24.3879 11.0554 23.5822 11.1998 22.6241 11.2329C22.3481 11.2424 22.1321 11.4739 22.1417 11.7499C22.1512 12.0258 22.3827 12.2418 22.6586 12.2323C23.6735 12.1972 24.6724 12.0439 25.503 11.5719Z" fill="#609352"/>
    <path d="M17.268 12.1501C18.0962 12.0802 18.988 12.1126 19.9086 12.1584C20.1844 12.172 20.4191 11.9596 20.4328 11.6838C20.4465 11.408 20.234 11.1733 19.9582 11.1596C19.0396 11.114 18.0866 11.0774 17.1838 11.1537C16.9087 11.1769 16.7044 11.4188 16.7277 11.694C16.7509 11.9692 16.9928 12.1734 17.268 12.1501Z" fill="#609352"/>
  </g>
  
  <!-- Definice gradientu pro pozadí kruhu -->
  <defs>
    <linearGradient id="paint0_linear_1035_170113" x1="32" y1="0" x2="32" y2="64" gradientUnits="userSpaceOnUse">
      <stop stop-color="#E8F5E4"/>
      <stop offset="1" stop-color="#F7FFF5"/>
    </linearGradient>
  </defs>
</svg>