<svg width="14" height="14" viewBox="0 0 14 14" fill="none" xmlns="http://www.w3.org/2000/svg">
<path d="M9.99408 7C10.3765 6.9545 10.7037 6.881 10.9041 6.7655C11.3027 6.53179 11.5928 6.14987 11.7109 5.70311C11.829 5.25634 11.7656 4.78099 11.5346 4.38078C11.3035 3.98058 10.9235 3.68802 10.4775 3.56694C10.0316 3.44586 9.55581 3.5061 9.15408 3.7345C8.95371 3.85 8.72621 4.09675 8.49608 4.40562C8.64833 4.05125 8.74808 3.731 8.74808 3.5C8.74808 3.03587 8.56371 2.59075 8.23552 2.26256C7.90733 1.93437 7.46221 1.75 6.99808 1.75C6.53396 1.75 6.08884 1.93437 5.76065 2.26256C5.43246 2.59075 5.24808 3.03587 5.24808 3.5C5.24808 3.731 5.34783 4.05125 5.50008 4.40562C5.26996 4.09675 5.04246 3.85 4.84208 3.7345C4.44036 3.5061 3.9646 3.44586 3.51862 3.56694C3.07265 3.68802 2.69267 3.98058 2.4616 4.38078C2.23054 4.78099 2.16715 5.25634 2.28527 5.70311C2.40339 6.14987 2.69342 6.53179 3.09208 6.7655C3.29246 6.881 3.61971 6.9545 4.00208 7C3.61971 7.0455 3.29246 7.119 3.09208 7.2345C2.89145 7.34857 2.71537 7.5012 2.57397 7.6836C2.43256 7.86599 2.32864 8.07456 2.26817 8.29729C2.2077 8.52002 2.19188 8.7525 2.22163 8.98137C2.25138 9.21023 2.3261 9.43095 2.4415 9.63082C2.5569 9.83069 2.71069 10.0058 2.89402 10.146C3.07735 10.2861 3.2866 10.3887 3.50973 10.4477C3.73285 10.5067 3.96544 10.5209 4.1941 10.4897C4.42277 10.4584 4.64299 10.3822 4.84208 10.2655C5.04246 10.15 5.26996 9.90325 5.50008 9.59438C5.34783 9.94875 5.24808 10.269 5.24808 10.5C5.24808 10.9641 5.43246 11.4092 5.76065 11.7374C6.08884 12.0656 6.53396 12.25 6.99808 12.25C7.46221 12.25 7.90733 12.0656 8.23552 11.7374C8.56371 11.4092 8.74808 10.9641 8.74808 10.5C8.74808 10.269 8.64833 9.94875 8.49608 9.59438C8.72621 9.90325 8.95371 10.15 9.15408 10.2655C9.35318 10.3822 9.5734 10.4584 9.80206 10.4897C10.0307 10.5209 10.2633 10.5067 10.4864 10.4477C10.7096 10.3887 10.9188 10.2861 11.1021 10.146C11.2855 10.0058 11.4393 9.83069 11.5547 9.63082C11.6701 9.43095 11.7448 9.21023 11.7745 8.98137C11.8043 8.7525 11.7885 8.52002 11.728 8.29729C11.6675 8.07456 11.5636 7.86599 11.4222 7.6836C11.2808 7.5012 11.1047 7.34857 10.9041 7.2345C10.7037 7.119 10.3765 7.0455 9.99408 7ZM7.87308 3.5C7.86311 3.56044 7.84996 3.62031 7.83371 3.67937C7.79929 3.79604 7.74592 3.93721 7.67358 4.10288C7.50686 4.46919 7.3208 4.8264 7.11621 5.173L6.99808 5.37425L6.87996 5.173C6.67537 4.8264 6.48931 4.46919 6.32258 4.10288C6.26012 3.96531 6.20664 3.82385 6.16246 3.67937C6.1462 3.62031 6.13306 3.56044 6.12308 3.5C6.12308 3.26794 6.21527 3.04538 6.37937 2.88128C6.54346 2.71719 6.76602 2.625 6.99808 2.625C7.23015 2.625 7.45271 2.71719 7.6168 2.88128C7.7809 3.04538 7.87308 3.26794 7.87308 3.5ZM3.20933 4.8125C3.32537 4.61154 3.51648 4.4649 3.74064 4.40484C3.96479 4.34478 4.20361 4.37622 4.40458 4.49225C4.45224 4.53124 4.4978 4.57271 4.54108 4.6165C4.62392 4.704 4.719 4.82067 4.82633 4.9665C5.04071 5.25788 5.26558 5.62013 5.47558 5.98413L5.58933 6.18713L5.35746 6.18888C4.9546 6.19276 4.55183 6.17523 4.15083 6.13637C4.00067 6.12181 3.85161 6.09755 3.70458 6.06375C3.64531 6.04816 3.5869 6.02947 3.52958 6.00775C3.32862 5.89171 3.18198 5.7006 3.12192 5.47645C3.06186 5.2523 3.09331 5.01347 3.20933 4.8125ZM4.40458 9.50775C4.20372 9.62195 3.96584 9.65207 3.74285 9.59153C3.51987 9.53099 3.32988 9.38471 3.21434 9.18461C3.09881 8.98451 3.06712 8.74683 3.12618 8.52345C3.18524 8.30006 3.33025 8.10911 3.52958 7.99225L3.57071 7.97475C3.60279 7.96308 3.64742 7.95025 3.70458 7.93625C3.82242 7.90825 3.97117 7.88404 4.15083 7.86363C4.55183 7.82477 4.9546 7.80724 5.35746 7.81112C5.43621 7.81113 5.51379 7.81171 5.59021 7.81287L5.47558 8.01588C5.26558 8.37988 5.04071 8.74213 4.82633 9.0335C4.7386 9.15621 4.64303 9.27312 4.54021 9.3835C4.49721 9.42727 4.45194 9.46874 4.40458 9.50775ZM7.87308 10.5C7.87308 10.7321 7.7809 10.9546 7.6168 11.1187C7.45271 11.2828 7.23015 11.375 6.99808 11.375C6.76602 11.375 6.54346 11.2828 6.37937 11.1187C6.21527 10.9546 6.12308 10.7321 6.12308 10.5C6.13303 10.4393 6.14617 10.3791 6.16246 10.3197C6.19629 10.2042 6.24967 10.0634 6.32258 9.89713C6.46783 9.56637 6.66908 9.19013 6.87996 8.827L6.99808 8.62575L7.11621 8.827C7.32708 9.19013 7.52746 9.56637 7.67358 9.89713C7.74592 10.0634 7.79929 10.2045 7.83371 10.3206C7.85165 10.3793 7.86481 10.4392 7.87308 10.5ZM10.7868 4.8125C10.9029 5.01347 10.9343 5.2523 10.8742 5.47645C10.8142 5.7006 10.6675 5.89171 10.4666 6.00775C10.4093 6.02947 10.3509 6.04816 10.2916 6.06375C10.1737 6.09175 10.025 6.11596 9.84533 6.13637C9.48483 6.17575 9.05958 6.18975 8.63871 6.18888C8.55996 6.18888 8.48238 6.18829 8.40596 6.18713L8.52058 5.98413C8.73058 5.62013 8.95546 5.25788 9.16983 4.9665C9.25757 4.84379 9.35314 4.72688 9.45596 4.6165C9.49679 4.57333 9.53004 4.54125 9.55571 4.52025L9.59158 4.49225C9.79255 4.37622 10.0314 4.34478 10.2555 4.40484C10.4797 4.4649 10.6708 4.61154 10.7868 4.8125ZM9.59158 9.50775C9.54425 9.46902 9.49898 9.42784 9.45596 9.38438C9.35314 9.274 9.25757 9.15709 9.16983 9.03437C8.93551 8.70633 8.71878 8.36606 8.52058 8.015L8.40683 7.812L8.63871 7.81025C9.05871 7.80937 9.48483 7.82338 9.84533 7.86275C10.025 7.88317 10.1737 7.90738 10.2916 7.93538C10.3488 7.94938 10.3934 7.96221 10.4255 7.97388L10.4675 7.99138C10.5678 8.04841 10.6558 8.12472 10.7265 8.21592C10.7972 8.30712 10.8492 8.41141 10.8794 8.52277C10.9097 8.63413 10.9176 8.75038 10.9027 8.86481C10.8878 8.97924 10.8504 9.0896 10.7928 9.18954C10.7351 9.28947 10.6582 9.37701 10.5665 9.4471C10.4748 9.5172 10.3702 9.56847 10.2586 9.59796C10.1471 9.62746 10.0308 9.63459 9.91645 9.61896C9.80212 9.60333 9.69201 9.56524 9.59246 9.50688L9.59158 9.50775ZM6.99808 7.875C6.76602 7.875 6.54346 7.78281 6.37937 7.61872C6.21527 7.45462 6.12308 7.23206 6.12308 7C6.12308 6.76794 6.21527 6.54538 6.37937 6.38128C6.54346 6.21719 6.76602 6.125 6.99808 6.125C7.23015 6.125 7.45271 6.21719 7.6168 6.38128C7.7809 6.54538 7.87308 6.76794 7.87308 7C7.87308 7.23206 7.7809 7.45462 7.6168 7.61872C7.45271 7.78281 7.23015 7.875 6.99808 7.875Z" fill="#2E7D32"/>
</svg>
