<svg width="28" height="28" viewBox="0 0 28 28" fill="none" xmlns="http://www.w3.org/2000/svg">
<g clip-path="url(#clip0_5055_2091)">
<path d="M8.75 12.5423L9.33333 13.709H11.0833V12.5423L10.2083 11.959L8.75 12.5423Z" fill="#2362A2"/>
<path fill-rule="evenodd" clip-rule="evenodd" d="M8.88728 5.96214C9.02043 5.82898 9.22386 5.79597 9.39229 5.88018L10.5225 6.44529C10.6263 6.49718 10.7052 6.58817 10.7419 6.69825L10.9671 7.37399L11.1745 7.47767L11.3819 7.37399L11.6071 6.69825C11.6667 6.5196 11.8338 6.3991 12.0222 6.3991H13.1524C13.3313 6.3991 13.4921 6.50802 13.5586 6.67412L14.0322 7.85829L15.4847 8.10037C15.5458 8.11054 15.604 8.13356 15.6555 8.16789L16.3929 8.65952H17.5193C17.6832 8.65952 17.8333 8.75107 17.9083 8.89674L18.3447 9.7444C18.4466 9.94232 18.3837 10.1852 18.1984 10.3087L17.7301 10.6209L17.8591 10.7982L18.8185 11.8538L19.0592 11.6132C19.1072 11.5652 19.1657 11.529 19.2302 11.5075L19.6796 11.3577L19.3889 10.3483C19.3388 10.1744 19.401 9.98754 19.5454 9.87833C19.6897 9.76912 19.8864 9.76008 20.0402 9.85558L21.7128 10.8945L22.9559 10.6459C23.1493 10.6072 23.3448 10.7028 23.433 10.8792L23.7156 11.4443C23.7998 11.6128 23.7668 11.8162 23.6336 11.9493L23.3368 12.2461L23.7676 12.8205L24.3161 12.6377C24.4059 12.6078 24.503 12.6078 24.5928 12.6377L25.4245 12.9149L26.5384 13.1934C26.6623 13.2244 26.7665 13.308 26.8236 13.4222L27.357 14.4889L27.8719 15.0038C27.9539 15.0858 28 15.1971 28 15.3132V16.1608C28 16.4024 27.8041 16.5983 27.5625 16.5983H26.6665L26.2463 17.2285L25.976 17.7692C25.9241 17.873 25.8331 17.9519 25.723 17.9886L25.1032 18.1952L24.8789 19.0924C24.8647 19.149 24.8394 19.2022 24.8045 19.2488L23.9568 20.379C23.8922 20.4652 23.7981 20.5244 23.6926 20.5456L22.2798 20.8281C22.2232 20.8394 22.1649 20.8394 22.1082 20.8281L21.0042 20.6073L20.1889 22.0295C20.1093 22.1683 19.9603 22.2526 19.8003 22.2493C19.6404 22.246 19.495 22.1557 19.4212 22.0137L19.0748 21.3476L18.1222 21.1382L17.556 21.3693C17.5035 21.3907 17.4473 21.4017 17.3906 21.4017H16.2604C16.1444 21.4017 16.0331 21.3556 15.9511 21.2736L15.2316 20.554H14.8477C14.7798 20.554 14.7128 20.5382 14.652 20.5079L13.5742 19.969L12.5976 19.7736L12.1546 21.1026C12.1067 21.2464 11.9877 21.3552 11.8401 21.39C11.7586 21.4093 11.6747 21.4044 11.5979 21.3781L11.2833 22.0075C11.2204 22.1333 11.1008 22.2212 10.962 22.2437C10.8232 22.2662 10.682 22.2207 10.5826 22.1212L10.2711 21.8097L9.72187 22.1759C9.62532 22.2402 9.50716 22.2636 9.39338 22.2409L7.98063 21.9583C7.82241 21.9267 7.69446 21.8105 7.6477 21.6561C7.60804 21.5251 7.63226 21.3846 7.71013 21.2754L6.12729 19.9187L5.61035 19.6602C5.5683 19.6392 5.5299 19.6115 5.49665 19.5783L3.92948 18.0111H3.54559C3.42956 18.0111 3.31828 17.965 3.23623 17.8829L2.38858 17.0353C2.34055 16.9873 2.30436 16.9287 2.28289 16.8643L2.02279 16.084L1.21773 15.0106C1.1183 14.878 1.10231 14.7006 1.17642 14.5524L1.65888 13.5875L0.806967 13.1615C0.703185 13.1096 0.624267 13.0186 0.587574 12.9085L0.0224698 11.2132C-0.0334874 11.0454 0.0171887 10.8603 0.150868 10.7444C0.284547 10.6284 0.474904 10.6044 0.633175 10.6836L1.41794 11.076L1.76881 10.5496C1.81104 10.4863 1.86908 10.4351 1.93718 10.401L3.06738 9.83591C3.17117 9.78402 3.29131 9.77548 3.40139 9.81218L3.94989 9.99501L4.60835 9.11707C4.69098 9.0069 4.82065 8.94207 4.95835 8.94207H5.77323L5.95607 8.39356C6.00337 8.25166 6.11989 8.14375 6.265 8.10748L7.34862 7.83657L8.45806 7.28185L8.32217 7.14596C8.15132 6.97511 8.15132 6.6981 8.32217 6.52724L8.88728 5.96214ZM9.25025 6.8366L9.50599 7.09235C9.60543 7.19179 9.65101 7.33297 9.62848 7.47178C9.60596 7.6106 9.51807 7.73012 9.39229 7.79302L7.69698 8.64067C7.66843 8.65495 7.6384 8.66606 7.60743 8.6738L6.71022 8.8981L6.50361 9.51792C6.44406 9.69657 6.27688 9.81707 6.08856 9.81707H5.1771L4.68064 10.479C4.71472 10.5123 4.74392 10.5517 4.76641 10.5967L5.45692 11.9777L9.08365 10.4234L9.40341 10.1036L8.92722 8.91313C8.86222 8.75064 8.90032 8.56504 9.02407 8.44129L10.0564 7.40892L9.9691 7.14687L9.28302 6.80383L9.25025 6.8366ZM10.5561 8.14673L9.84678 8.85602L10.1016 9.49305C10.1358 9.48448 10.1715 9.47994 10.2083 9.47994H12.5314L12.5417 9.47982C12.5759 9.47982 12.6091 9.48374 12.6411 9.49115L13.7071 9.70436L14.027 8.74449L13.6455 8.68091C13.4948 8.65578 13.368 8.55377 13.3113 8.41184L12.8562 7.2741H12.3375L12.1546 7.82261C12.118 7.93268 12.039 8.02368 11.9353 8.07557L11.3702 8.35812C11.247 8.41971 11.102 8.41971 10.9788 8.35812L10.5561 8.14673ZM10.3292 10.3549C10.3079 10.4152 10.2732 10.4713 10.2261 10.5183L9.64279 11.1017C9.60343 11.141 9.55693 11.1725 9.50577 11.1944L6.23007 12.5983L7.50899 13.3291C7.69006 13.4326 7.77293 13.6495 7.70698 13.8473L7.16976 15.459L7.31476 15.894L11.5081 15.6144L13.5625 14.0736V13.4883L13.2952 12.6863C13.2918 12.6767 13.2888 12.6668 13.2861 12.6568C13.278 12.627 13.2731 12.5965 13.2715 12.5657C13.271 12.556 13.2708 12.5464 13.2709 12.5368V12.1777L12.2792 11.434C12.169 11.3514 12.1042 11.2217 12.1042 11.084V10.3549H10.3292ZM3.98378 10.988L4.63928 12.299L2.48881 13.081C2.44809 13.024 2.39354 12.9765 2.32849 12.944L1.36037 12.4599L1.18657 11.9385L1.37207 12.0313C1.56942 12.13 1.80936 12.0663 1.93175 11.8827L2.43241 11.1317L3.29661 10.6996L3.95642 10.9195C3.96349 10.9427 3.97259 10.9656 3.98378 10.988ZM2.07996 14.7019L2.41069 14.0404L5.20923 13.0228L6.76346 13.9109L6.29355 15.3206C6.26361 15.4104 6.26361 15.5075 6.29355 15.5973L6.54847 16.3621L6.04338 18.8875L4.42005 17.2642C4.33801 17.1822 4.22673 17.1361 4.1107 17.1361H3.72681L3.08032 16.4896L2.83043 15.7399C2.81556 15.6953 2.7936 15.6534 2.76538 15.6158L2.07996 14.7019ZM8.6337 20.9146L6.8404 19.3775L7.35996 16.7679L11.2292 16.51V17.209C11.2292 17.325 11.2753 17.4363 11.3573 17.5183L11.9407 18.1017C11.9739 18.1349 12.0123 18.1626 12.0544 18.1836L13.5625 18.9377V19.0743L12.3905 18.8399C12.1741 18.7966 11.9594 18.9212 11.8897 19.1305L11.5171 20.2483C11.4744 20.2424 11.4306 20.2427 11.387 20.2498C11.2482 20.2723 11.1286 20.3602 11.0657 20.486L10.7721 21.0733L10.6362 20.9374C10.4887 20.7899 10.2577 20.7671 10.0842 20.8827L9.38729 21.3473L8.78604 21.2271C8.7806 21.1064 8.72549 20.9933 8.6337 20.9146ZM14.951 19.679L14.4375 19.4223V18.6673C14.4375 18.5016 14.3439 18.3501 14.1957 18.276L12.5092 17.4328L12.1042 17.0278V16.2611L14.1628 14.7171L15.8461 15.5587C15.8832 15.5773 15.9227 15.5904 15.9635 15.5979L17.3542 15.8507V17.6886L16.869 18.659L15.3389 19.679H14.951ZM14.4874 13.9011C14.471 13.8929 14.4544 13.8858 14.4375 13.8799V13.4173C14.4375 13.3703 14.4299 13.3236 14.4151 13.279L14.2853 12.8897L15.39 12.7056L17.0127 13.517C17.161 13.5911 17.3383 13.5751 17.4709 13.4757L18.4457 12.7446L18.4797 12.7819C18.5601 12.8704 18.6734 12.9222 18.793 12.925C18.8996 12.9276 19.003 12.8911 19.0841 12.8232L18.835 13.5708C18.8022 13.6689 18.8054 13.7755 18.8438 13.8716L19.3417 15.1162L19.2189 15.3004L16.1815 14.7481L14.4874 13.9011ZM15.3865 11.8191L14.1459 12.0259V11.959C14.1459 11.8213 14.081 11.6916 13.9709 11.609L12.9792 10.8652V10.4511L13.9142 10.6381C14.1306 10.6814 14.3453 10.5568 14.415 10.3475L14.9008 8.89012L15.2482 8.94802L16.0178 9.46104C16.0896 9.50895 16.1741 9.53452 16.2604 9.53452H17.2525L17.3879 9.79745L16.8654 10.1458C16.7663 10.2118 16.6984 10.3155 16.6774 10.4328C16.6565 10.5501 16.6842 10.6709 16.7543 10.7672L17.1656 11.3323C17.1749 11.3451 17.1849 11.3574 17.1956 11.3691L17.8546 12.0942L17.1622 12.6134L15.6541 11.8594C15.5714 11.818 15.4777 11.8039 15.3865 11.8191ZM16.4417 20.5267L16.1229 20.208L17.4511 19.3226C17.5144 19.2803 17.5656 19.2223 17.5997 19.1542L18.183 17.9875C18.2134 17.9268 18.2292 17.8598 18.2292 17.7919V16.0098L18.8189 16.117C18.8226 16.1385 18.828 16.1598 18.835 16.1808L19.1266 17.0558C19.1673 17.1779 19.2597 17.2759 19.3792 17.3236L19.7869 17.4867L21.6772 19.8496L20.8671 19.6875C20.6826 19.6507 20.4953 19.7358 20.4017 19.8989L19.828 20.8996L19.7567 20.7624C19.6968 20.6473 19.5891 20.5647 19.4624 20.5369L18.1769 20.2544C18.0903 20.2353 17.9998 20.2431 17.9177 20.2766L17.3048 20.5267H16.4417ZM22.7858 19.8346L23.3571 19.7203L24.0514 18.7945L24.3126 17.75C24.3488 17.6049 24.4567 17.4884 24.5987 17.4411L25.2744 17.2158L25.3891 16.9864L23.9706 16.7837L21.224 17.8824L22.7858 19.8346ZM20.2509 12.0896L20.2484 12.0975L19.7157 13.6954L20.2395 15.005C20.2931 15.1387 20.2773 15.2902 20.1974 15.4101L19.7327 16.1071L19.8926 16.5866L21 17.0296L23.2067 16.1469L22.4891 15.2499L20.8617 14.7075C20.683 14.6479 20.5625 14.4807 20.5625 14.2924V13.4174C20.5625 13.3495 20.5783 13.2825 20.6087 13.2218L21.192 12.0551C21.2344 11.9704 21.303 11.9018 21.3877 11.8594L21.5365 11.785C21.4879 11.7745 21.441 11.7558 21.3981 11.7291L20.5444 11.1988L20.6366 11.5189C20.7015 11.7443 20.5771 11.9808 20.3545 12.055L20.2509 12.0896ZM24.1501 15.9255L25.897 16.1751L26.0683 15.9181C26.1494 15.7964 26.286 15.7233 26.4323 15.7233H27.125V15.4944L26.6881 15.0574C26.6548 15.0242 26.6271 14.9858 26.6061 14.9437L26.131 13.9935L25.196 13.7597L25.1862 13.7572L25.1783 13.7549L25.1698 13.7523L25.1638 13.7503L24.4545 13.5139L23.7451 13.7503C23.5665 13.8099 23.3698 13.7484 23.2568 13.5978L22.4091 12.4676C22.3833 12.4331 22.3632 12.3959 22.3488 12.3571L21.9094 12.5768L21.4375 13.5207V13.9771L22.8884 14.4607C22.9684 14.4874 23.039 14.5366 23.0916 14.6024L24.1501 15.9255Z" fill="#2362A2"/>
</g>
<defs>
<clipPath id="clip0_5055_2091">
<rect width="28" height="28" fill="white"/>
</clipPath>
</defs>
</svg>
