<svg width="40" height="40" viewBox="0 0 40 40" fill="none" xmlns="http://www.w3.org/2000/svg">
<rect x="0.5" y="0.5" width="39" height="39" rx="7.5" fill="white"/>
<rect x="0.5" y="0.5" width="39" height="39" rx="7.5" stroke="#E7E7E7"/>
<path d="M20 9L20.586 10.8004H22.4711L20.939 11.9089L21.525 13.7163L19.9929 12.6008L18.4608 13.7163L19.0469 11.9089L17.5148 10.8004H19.4069L20 9ZM12.2195 12.2195L13.914 13.0809L15.2484 11.7394L14.9519 13.6104L16.6393 14.4718L14.7683 14.7683L14.4718 16.6393L13.6104 14.9448L11.7394 15.2484L13.0809 13.9069L12.2195 12.2195ZM9 20L10.8004 19.414V17.5289L11.9089 19.061L13.7163 18.475L12.6008 20.0071L13.7163 21.5392L11.9089 20.9531L10.8004 22.4852V20.5931L9 20ZM12.2195 27.7805L13.0809 26.086L11.7394 24.7516L13.6104 25.0481L14.4718 23.3607L14.7683 25.2317L16.6393 25.5282L14.9448 26.3896L15.2484 28.2606L13.9069 26.9191L12.2195 27.7805ZM20 31L19.414 29.1996H17.5289L19.061 28.0911L18.475 26.2837L20.0071 27.3992L21.5392 26.2837L20.9531 28.0911L22.4852 29.1996H20.5931L20 31ZM27.7805 27.7805L26.086 26.9191L24.7516 28.2606L25.0481 26.3896L23.3607 25.5282L25.2317 25.2317L25.5282 23.3607L26.3896 25.0552L28.2606 24.7516L26.9191 26.0931L27.7805 27.7805ZM31 20L29.1996 20.586V22.4711L28.0911 20.939L26.2837 21.525L27.3992 19.9929L26.2837 18.4608L28.0911 19.0469L29.1996 17.5148V19.4069L31 20ZM27.7805 12.2195L26.9191 13.914L28.2606 15.2484L26.3896 14.9519L25.5282 16.6393L25.2317 14.7683L23.3607 14.4718L25.0552 13.6104L24.7516 11.7394L26.0931 13.0809L27.7805 12.2195Z" fill="#2362A2"/>
</svg>
