<svg width="12" height="12" viewBox="0 0 12 12" fill="none" xmlns="http://www.w3.org/2000/svg">
<g clip-path="url(#clip0_5106_470)">
<path d="M0.375 7.42578C0.474456 7.42578 0.569839 7.46529 0.640165 7.53562C0.710491 7.60594 0.75 7.70133 0.75 7.80078V9.67578C0.75 9.87469 0.829018 10.0655 0.96967 10.2061C1.11032 10.3468 1.30109 10.4258 1.5 10.4258H10.5C10.6989 10.4258 10.8897 10.3468 11.0303 10.2061C11.171 10.0655 11.25 9.87469 11.25 9.67578V7.80078C11.25 7.70133 11.2895 7.60594 11.3598 7.53562C11.4302 7.46529 11.5255 7.42578 11.625 7.42578C11.7245 7.42578 11.8198 7.46529 11.8902 7.53562C11.9605 7.60594 12 7.70133 12 7.80078V9.67578C12 10.0736 11.842 10.4551 11.5607 10.7364C11.2794 11.0177 10.8978 11.1758 10.5 11.1758H1.5C1.10218 11.1758 0.720644 11.0177 0.43934 10.7364C0.158035 10.4551 0 10.0736 0 9.67578V7.80078C0 7.70133 0.0395088 7.60594 0.109835 7.53562C0.180161 7.46529 0.275544 7.42578 0.375 7.42578Z" fill="#3B3B3B"/>
<path d="M5.73497 8.8905C5.76981 8.92542 5.81119 8.95313 5.85675 8.97203C5.90231 8.99094 5.95115 9.00067 6.00047 9.00067C6.0498 9.00067 6.09864 8.99094 6.1442 8.97203C6.18976 8.95313 6.23114 8.92542 6.26597 8.8905L8.51597 6.6405C8.58639 6.57009 8.62595 6.47458 8.62595 6.375C8.62595 6.27542 8.58639 6.17991 8.51597 6.1095C8.44556 6.03908 8.35006 5.99953 8.25047 5.99953C8.15089 5.99953 8.05539 6.03908 7.98497 6.1095L6.37547 7.71975V1.125C6.37547 1.02554 6.33597 0.930161 6.26564 0.859835C6.19531 0.789509 6.09993 0.75 6.00047 0.75C5.90102 0.75 5.80563 0.789509 5.73531 0.859835C5.66498 0.930161 5.62547 1.02554 5.62547 1.125V7.71975L4.01597 6.1095C3.94556 6.03908 3.85006 5.99953 3.75047 5.99953C3.65089 5.99953 3.55539 6.03908 3.48497 6.1095C3.41456 6.17991 3.375 6.27542 3.375 6.375C3.375 6.47458 3.41456 6.57009 3.48497 6.6405L5.73497 8.8905Z" fill="#3B3B3B"/>
</g>
<defs>
<clipPath id="clip0_5106_470">
<rect width="12" height="12" fill="white"/>
</clipPath>
</defs>
</svg>
