<svg width="24" height="24" viewBox="0 0 24 24" fill="none" xmlns="http://www.w3.org/2000/svg">
<path d="M8.28454 18.6359C8.49454 18.5119 8.72404 18.3929 8.97304 18.2789C8.76247 18.5924 8.53722 18.8957 8.29804 19.1879C7.87804 19.6934 7.55104 19.9619 7.34554 20.0459L7.29304 20.0639C7.27819 20.0431 7.26514 20.021 7.25404 19.9979C7.17004 19.8329 7.17304 19.6739 7.31404 19.4579C7.47304 19.2104 7.79254 18.9269 8.28454 18.6359ZM11.967 16.1654C11.789 16.2024 11.611 16.2414 11.433 16.2824C11.6975 15.7644 11.9476 15.2392 12.183 14.7074C12.4201 15.1468 12.6753 15.5762 12.948 15.9944C12.622 16.0424 12.295 16.0994 11.967 16.1654ZM15.7545 17.5739C15.522 17.3855 15.3039 17.1799 15.102 16.9589C15.446 16.9659 15.752 16.9929 16.02 17.0399C16.4955 17.1254 16.719 17.2604 16.797 17.3534C16.821 17.3798 16.8349 17.4138 16.836 17.4494C16.8306 17.5552 16.7997 17.6581 16.746 17.7494C16.7162 17.8227 16.6676 17.8869 16.605 17.9354C16.5744 17.9552 16.5376 17.9632 16.5015 17.9579C16.3665 17.9534 16.1145 17.8589 15.7545 17.5739ZM12.417 10.4549C12.357 10.8209 12.255 11.2409 12.117 11.6984C12.0664 11.5271 12.0218 11.3539 11.9835 11.1794C11.8695 10.6499 11.853 10.2344 11.9145 9.94641C11.9715 9.68091 12.0795 9.57441 12.2085 9.52191C12.2776 9.49106 12.3509 9.47083 12.426 9.46191C12.4455 9.50691 12.468 9.59991 12.474 9.75891C12.482 9.94191 12.463 10.1744 12.417 10.4564V10.4549Z" fill="#000000"/>
<path fill-rule="evenodd" clip-rule="evenodd" d="M6 0H13.9395C14.3373 8.49561e-05 14.7188 0.158176 15 0.4395L20.5605 6C20.8418 6.28124 20.9999 6.66271 21 7.0605V21C21 21.7956 20.6839 22.5587 20.1213 23.1213C19.5587 23.6839 18.7956 24 18 24H6C5.20435 24 4.44129 23.6839 3.87868 23.1213C3.31607 22.5587 3 21.7956 3 21V3C3 2.20435 3.31607 1.44129 3.87868 0.87868C4.44129 0.316071 5.20435 0 6 0ZM14.25 2.25V5.25C14.25 5.64782 14.408 6.02936 14.6893 6.31066C14.9706 6.59196 15.3522 6.75 15.75 6.75H18.75L14.25 2.25ZM6.2475 20.502C6.3825 20.772 6.5925 21.0165 6.9045 21.1305C7.215 21.243 7.5225 21.1905 7.7745 21.0855C8.2515 20.8905 8.727 20.4315 9.1635 19.9065C9.663 19.305 10.188 18.516 10.695 17.6415C11.6739 17.3518 12.6762 17.148 13.6905 17.0325C14.1405 17.607 14.6055 18.102 15.0555 18.4575C15.4755 18.7875 15.96 19.062 16.4565 19.083C16.7269 19.096 16.9945 19.0236 17.2215 18.876C17.454 18.7245 17.6265 18.5055 17.7525 18.252C17.8875 17.9805 17.97 17.697 17.9595 17.4075C17.9505 17.122 17.8447 16.848 17.6595 16.6305C17.3205 16.2255 16.7655 16.0305 16.2195 15.933C15.5571 15.831 14.8852 15.8058 14.217 15.858C13.6531 15.0602 13.1612 14.2139 12.747 13.329C13.122 12.339 13.4025 11.403 13.527 10.638C13.581 10.311 13.6095 9.999 13.599 9.717C13.597 9.43709 13.5319 9.16124 13.4085 8.91C13.3373 8.77137 13.2362 8.65031 13.1125 8.55561C12.9887 8.46091 12.8454 8.39495 12.693 8.3625C12.39 8.298 12.078 8.3625 11.7915 8.478C11.226 8.703 10.9275 9.183 10.815 9.7125C10.7055 10.2225 10.755 10.8165 10.884 11.4165C11.016 12.0255 11.241 12.6885 11.529 13.359C11.0673 14.5042 10.5352 15.6198 9.936 16.6995C9.16311 16.9431 8.41801 17.2674 7.713 17.667C7.158 17.997 6.6645 18.387 6.3675 18.8475C6.0525 19.3365 5.955 19.9185 6.2475 20.502Z" fill="#000000"/>
</svg>
