<svg width="24" height="24" viewBox="0 0 24 24" fill="none" xmlns="http://www.w3.org/2000/svg">
<g clip-path="url(#clip0_115_276)">
<path d="M0 12C0 8.8174 1.26428 5.76516 3.51472 3.51472C5.76516 1.26428 8.8174 0 12 0C15.1826 0 18.2348 1.26428 20.4853 3.51472C22.7357 5.76516 24 8.8174 24 12C24 15.1826 22.7357 18.2348 20.4853 20.4853C18.2348 22.7357 15.1826 24 12 24C8.8174 24 5.76516 22.7357 3.51472 20.4853C1.26428 18.2348 0 15.1826 0 12ZM11.25 1.6155C10.245 1.9215 9.2475 2.8455 8.4195 4.398C8.14684 4.91421 7.91222 5.44964 7.7175 6H11.25V1.6155ZM6.135 6C6.38526 5.20332 6.70655 4.43072 7.095 3.6915C7.35606 3.20208 7.6555 2.73411 7.9905 2.292C6.13222 3.0631 4.53332 4.34972 3.3825 6H6.135ZM5.262 11.25C5.307 9.9345 5.469 8.673 5.73 7.5H2.511C1.95307 8.67808 1.61939 9.94976 1.527 11.25H5.262ZM7.2705 7.5C6.97547 8.7297 6.80561 9.9861 6.7635 11.25H11.25V7.5H7.2705ZM12.75 7.5V11.25H17.235C17.1934 9.98615 17.024 8.72976 16.7295 7.5H12.75ZM6.765 12.75C6.80662 14.0138 6.97598 15.2702 7.2705 16.5H11.25V12.75H6.765ZM12.75 12.75V16.5H16.7295C17.01 15.3525 17.1885 14.088 17.2365 12.75H12.75ZM7.7175 18C7.9255 18.58 8.1595 19.114 8.4195 19.602C9.2475 21.1545 10.2465 22.077 11.25 22.3845V18H7.7175ZM7.9905 21.708C7.6555 21.2659 7.35606 20.7979 7.095 20.3085C6.70655 19.5693 6.38526 18.7967 6.135 18H3.3825C4.53146 19.652 6.13092 20.9391 7.9905 21.708ZM5.73 16.5C5.45915 15.267 5.30249 14.0117 5.262 12.75H1.527C1.62 14.085 1.9635 15.3495 2.511 16.5H5.73ZM16.0095 21.708C17.8691 20.9391 19.4685 19.652 20.6175 18H17.865C17.6147 18.7967 17.2935 19.5693 16.905 20.3085C16.6439 20.7979 16.3445 21.2659 16.0095 21.708ZM12.75 18V22.3845C13.755 22.0785 14.7525 21.1545 15.5805 19.602C15.8405 19.115 16.0745 18.581 16.2825 18H12.75ZM18.27 16.5H21.489C22.0365 15.3495 22.38 14.085 22.473 12.75H18.738C18.6975 14.0117 18.5408 15.267 18.27 16.5ZM22.473 11.25C22.3806 9.94976 22.0469 8.67808 21.489 7.5H18.27C18.531 8.673 18.693 9.9345 18.738 11.25H22.473ZM16.905 3.6915C17.2755 4.3875 17.598 5.1615 17.865 6H20.6175C19.4685 4.34798 17.8691 3.06091 16.0095 2.292C16.3365 2.718 16.6365 3.189 16.905 3.6915ZM16.2825 6C16.0878 5.44964 15.8532 4.91421 15.5805 4.398C14.7525 2.8455 13.755 1.923 12.75 1.6155V6H16.2825Z" fill="#000000"/>
</g>
<defs>
<clipPath id="clip0_115_276">
<rect width="24" height="24" fill="white"/>
</clipPath>
</defs>
</svg>
