<svg width="12" height="12" viewBox="0 0 12 12" fill="none" xmlns="http://www.w3.org/2000/svg">
<path d="M1.60997 2.14097C1.57511 2.10611 1.54745 2.06472 1.52858 2.01916C1.50971 1.97361 1.5 1.92478 1.5 1.87547C1.5 1.82617 1.50971 1.77734 1.52858 1.73179C1.54745 1.68623 1.57511 1.64484 1.60997 1.60997C1.64484 1.57511 1.68623 1.54745 1.73179 1.52858C1.77734 1.50971 1.82617 1.5 1.87547 1.5C1.92478 1.5 1.97361 1.50971 2.01916 1.52858C2.06472 1.54745 2.10611 1.57511 2.14097 1.60997L6.00047 5.47022L9.85997 1.60997C9.89484 1.57511 9.93623 1.54745 9.98179 1.52858C10.0273 1.50971 10.0762 1.5 10.1255 1.5C10.1748 1.5 10.2236 1.50971 10.2692 1.52858C10.3147 1.54745 10.3561 1.57511 10.391 1.60997C10.4258 1.64484 10.4535 1.68623 10.4724 1.73179C10.4912 1.77734 10.5009 1.82617 10.5009 1.87547C10.5009 1.92478 10.4912 1.97361 10.4724 2.01916C10.4535 2.06472 10.4258 2.10611 10.391 2.14097L6.53072 6.00047L10.391 9.85997C10.4258 9.89484 10.4535 9.93623 10.4724 9.98179C10.4912 10.0273 10.5009 10.0762 10.5009 10.1255C10.5009 10.1748 10.4912 10.2236 10.4724 10.2692C10.4535 10.3147 10.4258 10.3561 10.391 10.391C10.3561 10.4258 10.3147 10.4535 10.2692 10.4724C10.2236 10.4912 10.1748 10.5009 10.1255 10.5009C10.0762 10.5009 10.0273 10.4912 9.98179 10.4724C9.93623 10.4535 9.89484 10.4258 9.85997 10.391L6.00047 6.53072L2.14097 10.391C2.10611 10.4258 2.06472 10.4535 2.01916 10.4724C1.97361 10.4912 1.92478 10.5009 1.87547 10.5009C1.82617 10.5009 1.77734 10.4912 1.73179 10.4724C1.68623 10.4535 1.64484 10.4258 1.60997 10.391C1.57511 10.3561 1.54745 10.3147 1.52858 10.2692C1.50971 10.2236 1.5 10.1748 1.5 10.1255C1.5 10.0762 1.50971 10.0273 1.52858 9.98179C1.54745 9.93623 1.57511 9.89484 1.60997 9.85997L5.47022 6.00047L1.60997 2.14097Z" fill="#3B3B3B"/>
</svg>
