<svg width="17" height="17" viewBox="0 0 17 17" fill="none" xmlns="http://www.w3.org/2000/svg">
<path fill-rule="evenodd" clip-rule="evenodd" d="M8.48478 2.14689C8.53134 2.19334 8.56828 2.24852 8.59349 2.30926C8.61869 2.37001 8.63167 2.43513 8.63167 2.50089C8.63167 2.56666 8.61869 2.63178 8.59349 2.69253C8.56828 2.75327 8.53134 2.80845 8.48478 2.85489L2.83778 8.50089L8.48478 14.1469C8.57866 14.2408 8.63141 14.3681 8.63141 14.5009C8.63141 14.6337 8.57866 14.761 8.48478 14.8549C8.39089 14.9488 8.26355 15.0015 8.13078 15.0015C7.998 15.0015 7.87066 14.9488 7.77678 14.8549L1.77678 8.85489C1.73021 8.80845 1.69327 8.75327 1.66806 8.69253C1.64286 8.63178 1.62988 8.56666 1.62988 8.50089C1.62988 8.43513 1.64286 8.37001 1.66806 8.30926C1.69327 8.24851 1.73021 8.19334 1.77678 8.14689L7.77678 2.14689C7.82322 2.10033 7.8784 2.06339 7.93914 2.03818C7.99989 2.01297 8.06501 2 8.13078 2C8.19654 2 8.26166 2.01297 8.32241 2.03818C8.38315 2.06339 8.43833 2.10033 8.48478 2.14689Z" fill="#4F4F4F"/>
<path fill-rule="evenodd" clip-rule="evenodd" d="M12.4848 2.14689C12.5313 2.19334 12.5683 2.24852 12.5935 2.30926C12.6187 2.37001 12.6317 2.43513 12.6317 2.50089C12.6317 2.56666 12.6187 2.63178 12.5935 2.69253C12.5683 2.75327 12.5313 2.80845 12.4848 2.85489L6.83778 8.50089L12.4848 14.1469C12.5313 14.1934 12.5681 14.2486 12.5933 14.3093C12.6185 14.37 12.6314 14.4351 12.6314 14.5009C12.6314 14.5666 12.6185 14.6317 12.5933 14.6925C12.5681 14.7532 12.5313 14.8084 12.4848 14.8549C12.4383 14.9014 12.3831 14.9383 12.3224 14.9634C12.2616 14.9886 12.1965 15.0015 12.1308 15.0015C12.065 15.0015 11.9999 14.9886 11.9392 14.9634C11.8785 14.9383 11.8233 14.9014 11.7768 14.8549L5.77678 8.85489C5.73021 8.80845 5.69327 8.75327 5.66806 8.69253C5.64286 8.63178 5.62988 8.56666 5.62988 8.50089C5.62988 8.43513 5.64286 8.37001 5.66806 8.30926C5.69327 8.24851 5.73021 8.19334 5.77678 8.14689L11.7768 2.14689C11.8232 2.10033 11.8784 2.06339 11.9391 2.03818C11.9999 2.01297 12.065 2 12.1308 2C12.1965 2 12.2617 2.01297 12.3224 2.03818C12.3832 2.06339 12.4383 2.10033 12.4848 2.14689Z" fill="#4F4F4F"/>
</svg>
