<svg width="24" height="24" viewBox="0 0 24 24" fill="none" xmlns="http://www.w3.org/2000/svg">
<g clip-path="url(#clip0_77_20516)">
<path d="M12.0317 17.85L5.17974 12.93C5.01872 12.8343 4.88535 12.6984 4.79271 12.5357C4.70008 12.3729 4.65137 12.1888 4.65137 12.0015C4.65137 11.8142 4.70008 11.6301 4.79271 11.4673C4.88535 11.3046 5.01872 11.1687 5.17974 11.073L12.0317 6.15C12.1951 6.05393 12.3809 6.00278 12.5704 6.00176C12.7599 6.00073 12.9463 6.04986 13.1107 6.14415C13.2751 6.23845 13.4115 6.37455 13.5063 6.53865C13.6011 6.70275 13.6507 6.889 13.6502 7.0785V9C15.9002 9 22.6502 9 24.1502 21C20.4002 14.25 13.6502 15 13.6502 15V16.9215C13.6502 17.7615 12.7412 18.2685 12.0317 17.8515V17.85Z" fill="white"/>
<path d="M7.84799 6.4395C7.90661 6.51884 7.94901 6.60896 7.97275 6.70471C7.99649 6.80046 8.0011 6.89995 7.98633 6.99748C7.97156 7.09502 7.9377 7.18868 7.88667 7.27311C7.83565 7.35754 7.76848 7.43107 7.68899 7.4895L1.67099 11.9175L1.60799 11.9595C1.57538 11.9791 1.54839 12.0068 1.52965 12.0399C1.51091 12.073 1.50107 12.1104 1.50107 12.1485C1.50107 12.1865 1.51091 12.224 1.52965 12.2571C1.54839 12.2902 1.57538 12.3179 1.60799 12.3375L1.67099 12.3795L7.68899 16.8105C7.77026 16.8681 7.83923 16.9414 7.89188 17.026C7.94453 17.1105 7.97979 17.2048 7.99562 17.3031C8.01145 17.4015 8.00752 17.502 7.98406 17.5989C7.9606 17.6957 7.91808 17.7869 7.85899 17.8671C7.7999 17.9473 7.72542 18.015 7.6399 18.0661C7.55438 18.1172 7.45953 18.1507 7.36089 18.1648C7.26226 18.1788 7.16181 18.1731 7.06542 18.1479C6.96903 18.1227 6.87863 18.0785 6.79949 18.018L0.808491 13.6095C0.560811 13.4549 0.35655 13.2398 0.214939 12.9845C0.0733269 12.7291 -0.000976563 12.442 -0.000976562 12.15C-0.000976563 11.858 0.0733269 11.5709 0.214939 11.3155C0.35655 11.0602 0.560811 10.8451 0.808491 10.6905L6.79949 6.2805C6.95963 6.16257 7.16004 6.11308 7.35666 6.1429C7.55329 6.17271 7.73002 6.2794 7.84799 6.4395Z" fill="white"/>
</g>
<defs>
<clipPath id="clip0_77_20516">
<rect width="24" height="24" fill="white"/>
</clipPath>
</defs>
</svg>
