<svg width="42" height="34" viewBox="0 0 42 34" fill="none" xmlns="http://www.w3.org/2000/svg">
<path d="M1.104 22.5V11.332H4.544C5.35467 11.332 6.08533 11.4653 6.736 11.732C7.38667 11.988 7.94133 12.3613 8.4 12.852C8.85867 13.332 9.21067 13.9133 9.456 14.596C9.70133 15.2787 9.824 16.0413 9.824 16.884C9.824 17.7373 9.70133 18.5107 9.456 19.204C9.21067 19.8867 8.85867 20.4787 8.4 20.98C7.94133 21.4707 7.38667 21.8493 6.736 22.116C6.08533 22.372 5.35467 22.5 4.544 22.5H1.104ZM2.8 21.06H4.544C5.26933 21.06 5.89333 20.8893 6.416 20.548C6.93867 20.196 7.33867 19.7053 7.616 19.076C7.904 18.4467 8.048 17.716 8.048 16.884C8.048 16.0413 7.904 15.316 7.616 14.708C7.33867 14.0893 6.93867 13.6147 6.416 13.284C5.89333 12.9427 5.26933 12.772 4.544 12.772H2.8V21.06ZM14.7102 22.5V11.332H16.4062V22.5H14.7102ZM11.9102 11.332H19.1903V12.772H11.9102V11.332ZM11.9102 21.06H19.1903V22.5H11.9102V21.06ZM22.9085 19.684V18.244H29.1005V19.684H22.9085ZM24.7005 11.332H27.1325L30.5885 22.5H28.8445L26.5885 15.108L25.9165 12.66L25.2445 15.124L22.9565 22.5H21.2445L24.7005 11.332Z" fill="#2E2D2C"/>
<path d="M32.4188 23.908V22.5H40.1468V23.908H32.4188Z" fill="#368537"/>
</svg>
