<svg width="22" height="26" viewBox="0 0 22 26" fill="none" xmlns="http://www.w3.org/2000/svg">
<path fill-rule="evenodd" clip-rule="evenodd" d="M18.333 19.3255V21.4524H17.1109V22.5155H15.8881V25.7056H14.666V24.6425H13.444V25.7056H12.222V23.5786H13.444V22.5155H14.666V20.3893H13.444V17.1993H10.9999V20.3893H3.66602V19.3255H2.44402V18.2624H4.27751V17.1993H5.49952V18.2624H7.333V15.0731H12.222V14.0092H10.9999V12.9461H7.333V14.0092H6.111V12.9461H4.88803V14.0092H2.44402V15.0731H1.22201V14.0092H0V11.883H1.22201V10.82H2.44402V11.883H3.66602V10.82H6.111V9.75688H4.88803V8.693H3.66602V7.62992H1.22201V6.56683H2.44402V4.44066H1.22201V3.37675H3.66602V2.31367H4.88803V3.37675H6.111V4.44066H4.88803V5.50375H6.111V6.56683H7.333V7.62992H8.55501V6.56683H9.77702V5.50375H12.222V4.44066H9.77702V3.37675H10.9999V2.31367H14.666V3.37675H15.8881V2.31367H17.1109V1.25058H18.333V6.56683H17.1109V5.50375H15.8881V6.56683H17.1109V7.62992H15.8881V8.693H14.666V9.75688H15.8881V10.82H14.666V14.0092H15.8881V15.0731H17.1109V16.1362H18.333V15.0731H17.1109V12.9461H18.333V11.883H19.5551V12.9461H20.7768V14.0092H19.5551V16.1362H20.7768V17.1993H21.9989V18.2624H19.5551V19.3255H18.333V18.2624H17.1109V17.1993H15.8881V19.3255H18.333ZM14.666 1.25058H10.9999V0.1875H14.666V1.25058ZM7.333 4.43983H8.55501V5.50292H7.333V4.43983ZM15.8889 12.9461L15.8881 10.82H17.1098L17.1109 12.9461H15.8889ZM17.1109 10.8192V7.62992H18.333V10.8192H17.1109ZM20.7768 12.9461V10.82H21.9989V12.9461H20.7768ZM19.5551 10.8192V7.62992H20.7768V10.82L19.5551 10.8192ZM20.7779 6.56683H22V7.62992H20.7768L20.7779 6.56683ZM20.7768 2.31367H21.9989V5.50375H20.7768L20.7779 6.56683H19.5551V1.25058H20.7768V2.31367ZM18.333 6.56683H19.5551V7.62992H18.333V6.56683ZM13.444 21.4524V22.5155H12.222V21.4524H13.444ZM3.66602 20.3893V21.4533H2.44402V20.3902L3.66602 20.3893Z" fill="#2362A2"/>
</svg>
