<svg width="12" height="12" viewBox="0 0 12 12" fill="none" xmlns="http://www.w3.org/2000/svg">
<path d="M12 6C12 6 9.75 1.875 6 1.875C2.25 1.875 0 6 0 6C0 6 2.25 10.125 6 10.125C9.75 10.125 12 6 12 6ZM0.87975 6C1.24184 5.44844 1.65897 4.93506 2.12475 4.46775C3.09 3.501 4.41 2.625 6 2.625C7.59 2.625 8.90925 3.501 9.876 4.46775C10.3418 4.93506 10.7589 5.44844 11.121 6C11.078 6.065 11.0293 6.137 10.9748 6.216C10.7235 6.576 10.3523 7.056 9.876 7.53225C8.90925 8.499 7.58925 9.375 6 9.375C4.41075 9.375 3.09075 8.499 2.124 7.53225C1.65822 7.06494 1.24184 6.55156 0.87975 6Z" fill="#2362A2"/>
<path d="M6 4.125C5.50272 4.125 5.02581 4.32254 4.67417 4.67417C4.32254 5.02581 4.125 5.50272 4.125 6C4.125 6.49728 4.32254 6.97419 4.67417 7.32583C5.02581 7.67746 5.50272 7.875 6 7.875C6.49728 7.875 6.97419 7.67746 7.32583 7.32583C7.67746 6.97419 7.875 6.49728 7.875 6C7.875 5.50272 7.67746 5.02581 7.32583 4.67417C6.97419 4.32254 6.49728 4.125 6 4.125ZM3.375 6C3.375 5.30381 3.65156 4.63613 4.14384 4.14384C4.63613 3.65156 5.30381 3.375 6 3.375C6.69619 3.375 7.36387 3.65156 7.85616 4.14384C8.34844 4.63613 8.625 5.30381 8.625 6C8.625 6.69619 8.34844 7.36387 7.85616 7.85616C7.36387 8.34844 6.69619 8.625 6 8.625C5.30381 8.625 4.63613 8.34844 4.14384 7.85616C3.65156 7.36387 3.375 6.69619 3.375 6Z" fill="#2362A2"/>
</svg>
