<svg width="16" height="16" viewBox="0 0 16 16" fill="none" xmlns="http://www.w3.org/2000/svg">
<path fill-rule="evenodd" clip-rule="evenodd" d="M7.64608 14.3531C7.59952 14.3067 7.56258 14.2515 7.53737 14.1907C7.51217 14.13 7.49919 14.0649 7.49919 13.9991C7.49919 13.9333 7.51217 13.8682 7.53737 13.8075C7.56258 13.7467 7.59952 13.6916 7.64608 13.6451L13.2931 7.99911L7.64608 2.35311C7.5522 2.25922 7.49945 2.13188 7.49945 1.99911C7.49945 1.86633 7.5522 1.73899 7.64608 1.64511C7.73997 1.55122 7.86731 1.49848 8.00009 1.49848C8.13286 1.49848 8.2602 1.55122 8.35409 1.64511L14.3541 7.64511C14.4006 7.69155 14.4376 7.74673 14.4628 7.80747C14.488 7.86822 14.501 7.93334 14.501 7.99911C14.501 8.06487 14.488 8.12999 14.4628 8.19074C14.4376 8.25149 14.4006 8.30666 14.3541 8.35311L8.35408 14.3531C8.30764 14.3997 8.25246 14.4366 8.19172 14.4618C8.13097 14.487 8.06585 14.5 8.00008 14.5C7.93432 14.5 7.8692 14.487 7.80845 14.4618C7.74771 14.4366 7.69253 14.3997 7.64608 14.3531Z" fill="#368537"/>
<path fill-rule="evenodd" clip-rule="evenodd" d="M3.64608 14.3531C3.59952 14.3067 3.56258 14.2515 3.53737 14.1907C3.51216 14.13 3.49919 14.0649 3.49919 13.9991C3.49919 13.9333 3.51216 13.8682 3.53737 13.8075C3.56258 13.7467 3.59952 13.6916 3.64608 13.6451L9.29308 7.99911L3.64608 2.35311C3.5996 2.30662 3.56272 2.25143 3.53756 2.19069C3.5124 2.12995 3.49945 2.06485 3.49945 1.99911C3.49945 1.93336 3.5124 1.86826 3.53756 1.80752C3.56272 1.74678 3.5996 1.69159 3.64608 1.64511C3.69257 1.59862 3.74776 1.56174 3.8085 1.53658C3.86924 1.51142 3.93434 1.49848 4.00008 1.49848C4.06583 1.49848 4.13093 1.51142 4.19167 1.53658C4.25241 1.56174 4.3076 1.59862 4.35408 1.64511L10.3541 7.64511C10.4006 7.69155 10.4376 7.74673 10.4628 7.80747C10.488 7.86822 10.501 7.93334 10.501 7.99911C10.501 8.06487 10.488 8.12999 10.4628 8.19074C10.4376 8.25149 10.4006 8.30666 10.3541 8.35311L4.35408 14.3531C4.30764 14.3997 4.25246 14.4366 4.19172 14.4618C4.13097 14.487 4.06585 14.5 4.00008 14.5C3.93432 14.5 3.86919 14.487 3.80845 14.4618C3.7477 14.4366 3.69253 14.3997 3.64608 14.3531Z" fill="#368537"/>
</svg>
