<svg width="24" height="24" viewBox="0 0 24 24" fill="none" xmlns="http://www.w3.org/2000/svg">
<path d="M9.75 0C9.15326 0 8.58097 0.237053 8.15901 0.65901C7.73705 1.08097 7.5 1.65326 7.5 2.25V3.75C7.5 4.34674 7.73705 4.91903 8.15901 5.34099C8.58097 5.76295 9.15326 6 9.75 6H14.25C14.8467 6 15.419 5.76295 15.841 5.34099C16.2629 4.91903 16.5 4.34674 16.5 3.75V2.25C16.5 1.65326 16.2629 1.08097 15.841 0.65901C15.419 0.237053 14.8467 0 14.25 0L9.75 0ZM14.25 1.5C14.4489 1.5 14.6397 1.57902 14.7803 1.71967C14.921 1.86032 15 2.05109 15 2.25V3.75C15 3.94891 14.921 4.13968 14.7803 4.28033C14.6397 4.42098 14.4489 4.5 14.25 4.5H9.75C9.55109 4.5 9.36032 4.42098 9.21967 4.28033C9.07902 4.13968 9 3.94891 9 3.75V2.25C9 2.05109 9.07902 1.86032 9.21967 1.71967C9.36032 1.57902 9.55109 1.5 9.75 1.5H14.25Z" fill="#000000"/>
<path d="M6 2.25H4.5C3.70435 2.25 2.94129 2.56607 2.37868 3.12868C1.81607 3.69129 1.5 4.45435 1.5 5.25V21C1.5 21.7956 1.81607 22.5587 2.37868 23.1213C2.94129 23.6839 3.70435 24 4.5 24H19.5C20.2956 24 21.0587 23.6839 21.6213 23.1213C22.1839 22.5587 22.5 21.7956 22.5 21V5.25C22.5 4.45435 22.1839 3.69129 21.6213 3.12868C21.0587 2.56607 20.2956 2.25 19.5 2.25H18V3.75C18 4.24246 17.903 4.73009 17.7145 5.18506C17.5261 5.64003 17.2499 6.05343 16.9017 6.40165C16.5534 6.74987 16.14 7.02609 15.6851 7.21455C15.2301 7.403 14.7425 7.5 14.25 7.5H9.75C8.75544 7.5 7.80161 7.10491 7.09835 6.40165C6.39509 5.69839 6 4.74456 6 3.75V2.25ZM16.281 13.281L11.781 17.781C11.7113 17.8508 11.6286 17.9063 11.5375 17.9441C11.4463 17.9819 11.3487 18.0013 11.25 18.0013C11.1513 18.0013 11.0537 17.9819 10.9625 17.9441C10.8714 17.9063 10.7887 17.8508 10.719 17.781L8.469 15.531C8.32817 15.3902 8.24905 15.1992 8.24905 15C8.24905 14.8008 8.32817 14.6098 8.469 14.469C8.60983 14.3282 8.80084 14.2491 9 14.2491C9.19916 14.2491 9.39017 14.3282 9.531 14.469L11.25 16.1895L15.219 12.219C15.3598 12.0782 15.5508 11.9991 15.75 11.9991C15.9492 11.9991 16.1402 12.0782 16.281 12.219C16.4218 12.3598 16.5009 12.5508 16.5009 12.75C16.5009 12.9492 16.4218 13.1402 16.281 13.281Z" fill="#000000"/>
</svg>
