<svg width="16" height="16" viewBox="0 0 16 16" fill="none" xmlns="http://www.w3.org/2000/svg">
<path fill-rule="evenodd" clip-rule="evenodd" d="M7.64565 4.64689C7.6921 4.60033 7.74728 4.56339 7.80802 4.53818C7.86877 4.51297 7.93389 4.5 7.99965 4.5C8.06542 4.5 8.13054 4.51297 8.19129 4.53818C8.25203 4.56339 8.30721 4.60033 8.35365 4.64689L14.3537 10.6469C14.4475 10.7408 14.5003 10.8681 14.5003 11.0009C14.5003 11.1337 14.4475 11.261 14.3537 11.3549C14.2598 11.4488 14.1324 11.5015 13.9997 11.5015C13.8669 11.5015 13.7395 11.4488 13.6457 11.3549L7.99965 5.70789L2.35366 11.3549C2.25977 11.4488 2.13243 11.5015 1.99966 11.5015C1.86688 11.5015 1.73954 11.4488 1.64566 11.3549C1.55177 11.261 1.49902 11.1337 1.49902 11.0009C1.49902 10.8681 1.55177 10.7408 1.64566 10.6469L7.64565 4.64689Z" fill="#2362A2"/>
</svg>
