<svg width="20" height="20" viewBox="0 0 20 20" fill="none" xmlns="http://www.w3.org/2000/svg">
<path d="M9.70645 1.94833C9.79687 1.90018 9.89775 1.875 10.0002 1.875C10.1026 1.875 10.2035 1.90018 10.2939 1.94833L19.6689 6.94833C19.7688 7.00168 19.8523 7.08114 19.9105 7.17822C19.9687 7.27531 19.9994 7.38639 19.9994 7.49958C19.9994 7.61278 19.9687 7.72385 19.9105 7.82094C19.8523 7.91803 19.7688 7.99749 19.6689 8.05083L10.2939 13.0508C10.2035 13.099 10.1026 13.1242 10.0002 13.1242C9.89775 13.1242 9.79687 13.099 9.70645 13.0508L0.331446 8.05083C0.231605 7.99749 0.148127 7.91803 0.089923 7.82094C0.0317195 7.72385 0.000976562 7.61278 0.000976562 7.49958C0.000976562 7.38639 0.0317195 7.27531 0.089923 7.17822C0.148127 7.08114 0.231605 7.00168 0.331446 6.94833L9.70645 1.94833Z" fill="#2362A2"/>
<path d="M2.65645 10.709L0.331446 11.949C0.231605 12.0023 0.148127 12.0818 0.089923 12.1789C0.0317195 12.276 0.000976562 12.387 0.000976562 12.5002C0.000976562 12.6134 0.0317195 12.7245 0.089923 12.8216C0.148127 12.9187 0.231605 12.9981 0.331446 13.0515L9.70645 18.0515C9.79687 18.0996 9.89775 18.1248 10.0002 18.1248C10.1026 18.1248 10.2035 18.0996 10.2939 18.0515L19.6689 13.0515C19.7688 12.9981 19.8523 12.9187 19.9105 12.8216C19.9687 12.7245 19.9994 12.6134 19.9994 12.5002C19.9994 12.387 19.9687 12.276 19.9105 12.1789C19.8523 12.0818 19.7688 12.0023 19.6689 11.949L17.3439 10.709L10.8814 14.154C10.6102 14.2984 10.3075 14.374 10.0002 14.374C9.69286 14.374 9.39023 14.2984 9.11895 14.154L2.65645 10.709Z" fill="#2362A2"/>
</svg>
