<svg width="24" height="24" viewBox="0 0 24 24" fill="none" xmlns="http://www.w3.org/2000/svg">
<g clip-path="url(#clip0_77_13895)">
<path d="M21.1801 15.2443L23.7526 16.5313C24.0826 16.6963 24.0826 17.1673 23.7526 17.3323L12.4006 23.0098C12.2762 23.0717 12.1391 23.1038 12.0001 23.1038C11.8612 23.1038 11.7241 23.0717 11.5996 23.0098L0.247635 17.3323C0.173478 17.2949 0.111154 17.2377 0.067609 17.167C0.0240637 17.0963 0.0010066 17.0149 0.0010066 16.9318C0.0010066 16.8488 0.0240637 16.7674 0.067609 16.6967C0.111154 16.6259 0.173478 16.5687 0.247635 16.5313L2.82164 15.2443L10.7971 19.2328C11.5546 19.6108 12.4471 19.6108 13.2031 19.2328L21.1786 15.2428L21.1801 15.2443ZM11.5996 0.0943277C11.7241 0.0324866 11.8612 0.000305176 12.0001 0.000305176C12.1391 0.000305176 12.2762 0.0324866 12.4006 0.0943277L23.7526 5.77033C23.8267 5.80795 23.889 5.86535 23.9324 5.93617C23.9759 6.007 23.9989 6.08848 23.9989 6.17158C23.9989 6.25468 23.9759 6.33616 23.9324 6.40698C23.889 6.47781 23.8267 6.53521 23.7526 6.57283L12.4006 12.2473C12.2762 12.3092 12.1391 12.3414 12.0001 12.3414C11.8612 12.3414 11.7241 12.3092 11.5996 12.2473L0.247635 6.57283C0.173085 6.5356 0.11038 6.47834 0.0665533 6.40746C0.0227268 6.33659 -0.000488281 6.25491 -0.000488281 6.17158C-0.000488281 6.08825 0.0227268 6.00657 0.0665533 5.93569C0.11038 5.86482 0.173085 5.80756 0.247635 5.77033L11.5996 0.0943277Z" fill="#000000"/>
<path d="M21.1801 9.86401L23.7526 11.151C24.0826 11.316 24.0826 11.787 23.7526 11.952L12.4006 17.628C12.2762 17.6899 12.1391 17.722 12.0001 17.722C11.8611 17.722 11.7241 17.6899 11.5996 17.628L0.247605 11.952C0.173448 11.9146 0.111124 11.8574 0.067579 11.7867C0.0240337 11.716 0.000976562 11.6346 0.000976563 11.5515C0.000976562 11.4685 0.0240337 11.3871 0.067579 11.3163C0.111124 11.2456 0.173448 11.1884 0.247605 11.151L2.82161 9.86401L10.7971 13.8525C11.5546 14.2305 12.4471 14.2305 13.2031 13.8525L21.1801 9.86401Z" fill="#000000"/>
</g>
<defs>
<clipPath id="clip0_77_13895">
<rect width="24" height="24" fill="white"/>
</clipPath>
</defs>
</svg>
